<?xml version="1.0" encoding="UTF-8" standalone="no"?>
<!-- Created with Inkscape (http://www.inkscape.org/) -->

<svg
   xmlns:dc="http://purl.org/dc/elements/1.1/"
   xmlns:cc="http://creativecommons.org/ns#"
   xmlns:rdf="http://www.w3.org/1999/02/22-rdf-syntax-ns#"
   xmlns:svg="http://www.w3.org/2000/svg"
   xmlns="http://www.w3.org/2000/svg"
   xmlns:sodipodi="http://sodipodi.sourceforge.net/DTD/sodipodi-0.dtd"
   xmlns:inkscape="http://www.inkscape.org/namespaces/inkscape"
   width="256"
   height="256"
   viewBox="0 0 256 256.00001"
   id="svg2"
   version="1.1"
   inkscape:version="0.91 r"
   sodipodi:docname="zavozy-icon.svg"
   inkscape:export-filename="/home/radical/path256.png"
   inkscape:export-xdpi="720"
   inkscape:export-ydpi="720">
  <defs
     id="defs4" />
  <sodipodi:namedview
     id="base"
     pagecolor="#ffffff"
     bordercolor="#666666"
     borderopacity="1.0"
     inkscape:pageopacity="0.0"
     inkscape:pageshadow="2"
     inkscape:zoom="1.979899"
     inkscape:cx="31.496266"
     inkscape:cy="118.53005"
     inkscape:document-units="px"
     inkscape:current-layer="layer1"
     showgrid="false"
     units="px"
     inkscape:window-width="1920"
     inkscape:window-height="1010"
     inkscape:window-x="0"
     inkscape:window-y="0"
     inkscape:window-maximized="1">
    <inkscape:grid
       type="xygrid"
       id="grid3336" />
  </sodipodi:namedview>
  <metadata
     id="metadata7">
    <rdf:RDF>
      <cc:Work
         rdf:about="">
        <dc:format>image/svg+xml</dc:format>
        <dc:type
           rdf:resource="http://purl.org/dc/dcmitype/StillImage" />
        <dc:title></dc:title>
      </cc:Work>
    </rdf:RDF>
  </metadata>
  <g
     inkscape:label="Layer 1"
     inkscape:groupmode="layer"
     id="layer1"
     transform="translate(0,-796.3622)">
    <ellipse
       style="opacity:1;fill:none;fill-opacity:1;stroke:none;stroke-width:10.34000015;stroke-miterlimit:4;stroke-dasharray:none;stroke-dashoffset:0;stroke-opacity:0.99607843"
       id="path3357"
       cx="-212.13203"
       cy="971.54999"
       rx="21.213203"
       ry="6.0609155" />
    <g
       id="g3339"
       transform="matrix(8.4082624,0,0,8.4082624,-6.5323435,-7788.5181)">
      <path
         id="path3355"
         transform="translate(0,1020.3622)"
         d="m 11.822266,9.0546875 c -1.304425,0 -4.5956628,4.4637265 -6.7578129,6.3281245 -0.7863331,0.678101 -2.5078642,0.545629 -3.0117187,0.798829 -1.48958951,0.7485 -0.4921875,4.976562 -0.4921875,4.976562 l 2.5371093,0 a 2.9662373,2.9662373 0 0 1 -0.00391,-0.0918 2.9662373,2.9662373 0 0 1 2.9667969,-2.964844 2.9662373,2.9662373 0 0 1 2.9667969,2.964844 2.9662373,2.9662373 0 0 1 -0.0039,0.0918 l 11.677734,0 a 2.9662373,2.9662373 0 0 1 -0.002,-0.0918 2.9662373,2.9662373 0 0 1 2.964843,-2.964844 2.9662373,2.9662373 0 0 1 2.966797,2.964844 2.9662373,2.9662373 0 0 1 -0.0039,0.0918 l 3.121094,0 -0.492188,-12.1035155 -18.433593,0 z"
         style="fill:#ffffff;fill-rule:evenodd;stroke:#0000ff;stroke-width:0.91240472;stroke-linecap:butt;stroke-linejoin:miter;stroke-miterlimit:4;stroke-dasharray:none;stroke-opacity:1"
         inkscape:connector-curvature="0" />
      <circle
         r="2.067035"
         cy="1041.4291"
         cx="7.0606761"
         id="path3359"
         style="opacity:1;fill:#0000ff;fill-opacity:1;stroke:none;stroke-width:10.34000015;stroke-miterlimit:4;stroke-dasharray:none;stroke-dashoffset:0;stroke-opacity:0.99607843" />
      <circle
         style="opacity:1;fill:#0000ff;fill-opacity:1;stroke:none;stroke-width:10.34000015;stroke-miterlimit:4;stroke-dasharray:none;stroke-dashoffset:0;stroke-opacity:0.99607843"
         id="circle4196"
         cx="24.664536"
         cy="1041.4291"
         r="2.067035" />
      <path
         inkscape:connector-curvature="0"
         id="rect4163"
         d="m 17.063679,1030.9832 -0.516491,2.883 -2.882933,0 -0.574178,3.205 2.882933,0 -0.516473,2.8829 3.205012,0 0.516473,-2.8829 2.882934,0 0.574178,-3.205 -2.882934,0 0.516491,-2.883 -3.205012,0 z"
         style="opacity:1;fill:#0000ff;fill-opacity:1;stroke:none;stroke-width:30;stroke-miterlimit:4;stroke-dasharray:none;stroke-dashoffset:0;stroke-opacity:0.99607843" />
    </g>
  </g>
</svg>
